<svg id="eU0j9IwrxzK1" xmlns="http://www.w3.org/2000/svg" xmlns:xlink="http://www.w3.org/1999/xlink" viewBox="0 0 600 490" shape-rendering="geometricPrecision" text-rendering="geometricPrecision"><ellipse rx="3.98243" ry="3.98243" transform="translate(24.827232 34.653002)" fill="#4f71b3" stroke-width="0"/><ellipse rx="3.98243" ry="3.98243" transform="translate(424.827232 34.653002)" fill="#4f71b3" stroke-width="0"/><ellipse rx="3.98243" ry="3.98243" transform="translate(524.827232 34.653002)" fill="#4f71b3" stroke-width="0"/><ellipse rx="3.98243" ry="3.98243" transform="translate(575.827232 44.653002)" fill="#4f71b3" stroke-width="0"/><ellipse rx="3.98243" ry="3.98243" transform="translate(575.827232 254.653002)" fill="#4f71b3" stroke-width="0"/><ellipse rx="3.98243" ry="3.98243" transform="translate(575.827232 374.653002)" fill="#4f71b3" stroke-width="0"/><ellipse rx="3.98243" ry="3.98243" transform="translate(575.827232 434.653002)" fill="#4f71b3" stroke-width="0"/><ellipse rx="3.98243" ry="3.98243" transform="translate(575.827232 404.653002)" fill="#4f71b3" stroke-width="0"/><ellipse rx="3.98243" ry="3.98243" transform="translate(575.827232 314.653002)" fill="#4f71b3" stroke-width="0"/><ellipse rx="3.98243" ry="3.98243" transform="translate(575.827232 344.653002)" fill="#4f71b3" stroke-width="0"/><ellipse rx="3.98243" ry="3.98243" transform="translate(575.827232 284.653002)" fill="#4f71b3" stroke-width="0"/><ellipse rx="3.98243" ry="3.98243" transform="translate(575.827232 164.653002)" fill="#4f71b3" stroke-width="0"/><ellipse rx="3.98243" ry="3.98243" transform="translate(575.827232 224.653002)" fill="#4f71b3" stroke-width="0"/><ellipse rx="3.98243" ry="3.98243" transform="translate(575.827232 254.653002)" fill="#4f71b3" stroke-width="0"/><ellipse rx="3.98243" ry="3.98243" transform="translate(575.827232 194.653002)" fill="#4f71b3" stroke-width="0"/><ellipse rx="3.98243" ry="3.98243" transform="translate(575.827232 104.653002)" fill="#4f71b3" stroke-width="0"/><ellipse rx="3.98243" ry="3.98243" transform="translate(575.827232 134.653002)" fill="#4f71b3" stroke-width="0"/><ellipse rx="3.98243" ry="3.98243" transform="translate(575.827232 74.653002)" fill="#4f71b3" stroke-width="0"/><ellipse rx="3.98243" ry="3.98243" transform="translate(524.827232 244.653002)" fill="#4f71b3" stroke-width="0"/><ellipse rx="3.98243" ry="3.98243" transform="translate(524.827232 364.653002)" fill="#4f71b3" stroke-width="0"/><ellipse rx="3.98243" ry="3.98243" transform="translate(524.827232 424.653002)" fill="#4f71b3" stroke-width="0"/><ellipse rx="3.98243" ry="3.98243" transform="translate(524.827232 454.653002)" fill="#4f71b3" stroke-width="0"/><ellipse rx="3.98243" ry="3.98243" transform="translate(524.827232 394.653002)" fill="#4f71b3" stroke-width="0"/><ellipse rx="3.98243" ry="3.98243" transform="translate(524.827232 304.653002)" fill="#4f71b3" stroke-width="0"/><ellipse rx="3.98243" ry="3.98243" transform="translate(524.827232 334.653002)" fill="#4f71b3" stroke-width="0"/><ellipse rx="3.98243" ry="3.98243" transform="translate(524.827232 274.653002)" fill="#4f71b3" stroke-width="0"/><ellipse rx="3.98243" ry="3.98243" transform="translate(524.827232 154.653002)" fill="#4f71b3" stroke-width="0"/><ellipse rx="3.98243" ry="3.98243" transform="translate(524.827232 214.653002)" fill="#4f71b3" stroke-width="0"/><ellipse rx="3.98243" ry="3.98243" transform="translate(524.827232 244.653002)" fill="#4f71b3" stroke-width="0"/><ellipse rx="3.98243" ry="3.98243" transform="translate(524.827232 184.653002)" fill="#4f71b3" stroke-width="0"/><ellipse rx="3.98243" ry="3.98243" transform="translate(524.827232 94.653002)" fill="#4f71b3" stroke-width="0"/><ellipse rx="3.98243" ry="3.98243" transform="translate(524.827232 124.653002)" fill="#4f71b3" stroke-width="0"/><ellipse rx="3.98243" ry="3.98243" transform="translate(524.827232 64.653002)" fill="#4f71b3" stroke-width="0"/><ellipse rx="3.98243" ry="3.98243" transform="translate(475.827232 44.653002)" fill="#4f71b3" stroke-width="0"/><ellipse rx="3.98243" ry="3.98243" transform="translate(475.827232 254.653002)" fill="#4f71b3" stroke-width="0"/><ellipse rx="3.98243" ry="3.98243" transform="translate(475.827232 374.653002)" fill="#4f71b3" stroke-width="0"/><ellipse rx="3.98243" ry="3.98243" transform="translate(475.827232 434.653002)" fill="#4f71b3" stroke-width="0"/><ellipse rx="3.98243" ry="3.98243" transform="translate(475.827232 404.653002)" fill="#4f71b3" stroke-width="0"/><ellipse rx="3.98243" ry="3.98243" transform="translate(475.827232 314.653002)" fill="#4f71b3" stroke-width="0"/><ellipse rx="3.98243" ry="3.98243" transform="translate(475.827232 344.653002)" fill="#4f71b3" stroke-width="0"/><ellipse rx="3.98243" ry="3.98243" transform="translate(475.827232 284.653002)" fill="#4f71b3" stroke-width="0"/><ellipse rx="3.98243" ry="3.98243" transform="translate(475.827232 164.653002)" fill="#4f71b3" stroke-width="0"/><ellipse rx="3.98243" ry="3.98243" transform="translate(475.827232 224.653002)" fill="#4f71b3" stroke-width="0"/><ellipse rx="3.98243" ry="3.98243" transform="translate(475.827232 254.653002)" fill="#4f71b3" stroke-width="0"/><ellipse rx="3.98243" ry="3.98243" transform="translate(475.827232 194.653002)" fill="#4f71b3" stroke-width="0"/><ellipse rx="3.98243" ry="3.98243" transform="translate(475.827232 104.653002)" fill="#4f71b3" stroke-width="0"/><ellipse rx="3.98243" ry="3.98243" transform="translate(475.827232 134.653002)" fill="#4f71b3" stroke-width="0"/><ellipse rx="3.98243" ry="3.98243" transform="translate(475.827232 74.653002)" fill="#4f71b3" stroke-width="0"/><ellipse rx="3.98243" ry="3.98243" transform="translate(424.827232 244.653002)" fill="#4f71b3" stroke-width="0"/><ellipse rx="3.98243" ry="3.98243" transform="translate(424.827232 364.653002)" fill="#4f71b3" stroke-width="0"/><ellipse rx="3.98243" ry="3.98243" transform="translate(424.827232 424.653002)" fill="#4f71b3" stroke-width="0"/><ellipse rx="3.98243" ry="3.98243" transform="translate(424.827232 454.653002)" fill="#4f71b3" stroke-width="0"/><ellipse rx="3.98243" ry="3.98243" transform="translate(424.827232 394.653002)" fill="#4f71b3" stroke-width="0"/><ellipse rx="3.98243" ry="3.98243" transform="translate(424.827232 304.653002)" fill="#4f71b3" stroke-width="0"/><ellipse rx="3.98243" ry="3.98243" transform="translate(424.827232 334.653002)" fill="#4f71b3" stroke-width="0"/><ellipse rx="3.98243" ry="3.98243" transform="translate(424.827232 274.653002)" fill="#4f71b3" stroke-width="0"/><ellipse rx="3.98243" ry="3.98243" transform="translate(424.827232 154.653002)" fill="#4f71b3" stroke-width="0"/><ellipse rx="3.98243" ry="3.98243" transform="translate(424.827232 214.653002)" fill="#4f71b3" stroke-width="0"/><ellipse rx="3.98243" ry="3.98243" transform="translate(424.827232 244.653002)" fill="#4f71b3" stroke-width="0"/><ellipse rx="3.98243" ry="3.98243" transform="translate(424.827232 184.653002)" fill="#4f71b3" stroke-width="0"/><ellipse rx="3.98243" ry="3.98243" transform="translate(424.827232 94.653002)" fill="#4f71b3" stroke-width="0"/><ellipse rx="3.98243" ry="3.98243" transform="translate(424.827232 124.653002)" fill="#4f71b3" stroke-width="0"/><ellipse rx="3.98243" ry="3.98243" transform="translate(424.827232 64.653002)" fill="#4f71b3" stroke-width="0"/><ellipse rx="3.98243" ry="3.98243" transform="translate(224.827232 34.653002)" fill="#4f71b3" stroke-width="0"/><ellipse rx="3.98243" ry="3.98243" transform="translate(324.827232 34.653002)" fill="#4f71b3" stroke-width="0"/><ellipse rx="3.98243" ry="3.98243" transform="translate(375.827232 44.653002)" fill="#4f71b3" stroke-width="0"/><ellipse rx="3.98243" ry="3.98243" transform="translate(375.827232 254.653002)" fill="#4f71b3" stroke-width="0"/><ellipse rx="3.98243" ry="3.98243" transform="translate(375.827232 374.653002)" fill="#4f71b3" stroke-width="0"/><ellipse rx="3.98243" ry="3.98243" transform="translate(375.827232 434.653002)" fill="#4f71b3" stroke-width="0"/><ellipse rx="3.98243" ry="3.98243" transform="translate(375.827232 404.653002)" fill="#4f71b3" stroke-width="0"/><ellipse rx="3.98243" ry="3.98243" transform="translate(375.827232 314.653002)" fill="#4f71b3" stroke-width="0"/><ellipse rx="3.98243" ry="3.98243" transform="translate(375.827232 344.653002)" fill="#4f71b3" stroke-width="0"/><ellipse rx="3.98243" ry="3.98243" transform="translate(375.827232 284.653002)" fill="#4f71b3" stroke-width="0"/><ellipse rx="3.98243" ry="3.98243" transform="translate(375.827232 164.653002)" fill="#4f71b3" stroke-width="0"/><ellipse rx="3.98243" ry="3.98243" transform="translate(375.827232 224.653002)" fill="#4f71b3" stroke-width="0"/><ellipse rx="3.98243" ry="3.98243" transform="translate(375.827232 254.653002)" fill="#4f71b3" stroke-width="0"/><ellipse rx="3.98243" ry="3.98243" transform="translate(375.827232 194.653002)" fill="#4f71b3" stroke-width="0"/><ellipse rx="3.98243" ry="3.98243" transform="translate(375.827232 104.653002)" fill="#4f71b3" stroke-width="0"/><ellipse rx="3.98243" ry="3.98243" transform="translate(375.827232 134.653002)" fill="#4f71b3" stroke-width="0"/><ellipse rx="3.98243" ry="3.98243" transform="translate(375.827232 74.653002)" fill="#4f71b3" stroke-width="0"/><ellipse rx="3.98243" ry="3.98243" transform="translate(324.827232 244.653002)" fill="#4f71b3" stroke-width="0"/><ellipse rx="3.98243" ry="3.98243" transform="translate(324.827232 364.653002)" fill="#4f71b3" stroke-width="0"/><ellipse rx="3.98243" ry="3.98243" transform="translate(324.827232 424.653002)" fill="#4f71b3" stroke-width="0"/><ellipse rx="3.98243" ry="3.98243" transform="translate(324.827232 454.653002)" fill="#4f71b3" stroke-width="0"/><ellipse rx="3.98243" ry="3.98243" transform="translate(324.827232 394.653002)" fill="#4f71b3" stroke-width="0"/><ellipse rx="3.98243" ry="3.98243" transform="translate(324.827232 304.653002)" fill="#4f71b3" stroke-width="0"/><ellipse rx="3.98243" ry="3.98243" transform="translate(324.827232 334.653002)" fill="#4f71b3" stroke-width="0"/><ellipse rx="3.98243" ry="3.98243" transform="translate(324.827232 274.653002)" fill="#4f71b3" stroke-width="0"/><ellipse rx="3.98243" ry="3.98243" transform="translate(324.827232 154.653002)" fill="#4f71b3" stroke-width="0"/><ellipse rx="3.98243" ry="3.98243" transform="translate(324.827232 214.653002)" fill="#4f71b3" stroke-width="0"/><ellipse rx="3.98243" ry="3.98243" transform="translate(324.827232 244.653002)" fill="#4f71b3" stroke-width="0"/><ellipse rx="3.98243" ry="3.98243" transform="translate(324.827232 184.653002)" fill="#4f71b3" stroke-width="0"/><ellipse rx="3.98243" ry="3.98243" transform="translate(324.827232 94.653002)" fill="#4f71b3" stroke-width="0"/><ellipse rx="3.98243" ry="3.98243" transform="translate(324.827232 124.653002)" fill="#4f71b3" stroke-width="0"/><ellipse rx="3.98243" ry="3.98243" transform="translate(324.827232 64.653002)" fill="#4f71b3" stroke-width="0"/><ellipse rx="3.98243" ry="3.98243" transform="translate(275.827232 44.653002)" fill="#4f71b3" stroke-width="0"/><ellipse rx="3.98243" ry="3.98243" transform="translate(275.827232 254.653002)" fill="#4f71b3" stroke-width="0"/><ellipse rx="3.98243" ry="3.98243" transform="translate(275.827232 374.653002)" fill="#4f71b3" stroke-width="0"/><ellipse rx="3.98243" ry="3.98243" transform="translate(275.827232 434.653002)" fill="#4f71b3" stroke-width="0"/><ellipse rx="3.98243" ry="3.98243" transform="translate(275.827232 404.653002)" fill="#4f71b3" stroke-width="0"/><ellipse rx="3.98243" ry="3.98243" transform="translate(275.827232 314.653002)" fill="#4f71b3" stroke-width="0"/><ellipse rx="3.98243" ry="3.98243" transform="translate(275.827232 344.653002)" fill="#4f71b3" stroke-width="0"/><ellipse rx="3.98243" ry="3.98243" transform="translate(275.827232 284.653002)" fill="#4f71b3" stroke-width="0"/><ellipse rx="3.98243" ry="3.98243" transform="translate(275.827232 164.653002)" fill="#4f71b3" stroke-width="0"/><ellipse rx="3.98243" ry="3.98243" transform="translate(275.827232 224.653002)" fill="#4f71b3" stroke-width="0"/><ellipse rx="3.98243" ry="3.98243" transform="translate(275.827232 254.653002)" fill="#4f71b3" stroke-width="0"/><ellipse rx="3.98243" ry="3.98243" transform="translate(275.827232 194.653002)" fill="#4f71b3" stroke-width="0"/><ellipse rx="3.98243" ry="3.98243" transform="translate(275.827232 104.653002)" fill="#4f71b3" stroke-width="0"/><ellipse rx="3.98243" ry="3.98243" transform="translate(275.827232 134.653002)" fill="#4f71b3" stroke-width="0"/><ellipse rx="3.98243" ry="3.98243" transform="translate(275.827232 74.653002)" fill="#4f71b3" stroke-width="0"/><ellipse rx="3.98243" ry="3.98243" transform="translate(224.827232 244.653002)" fill="#4f71b3" stroke-width="0"/><ellipse rx="3.98243" ry="3.98243" transform="translate(224.827232 364.653002)" fill="#4f71b3" stroke-width="0"/><ellipse rx="3.98243" ry="3.98243" transform="translate(224.827232 424.653002)" fill="#4f71b3" stroke-width="0"/><ellipse rx="3.98243" ry="3.98243" transform="translate(224.827232 454.653002)" fill="#4f71b3" stroke-width="0"/><ellipse rx="3.98243" ry="3.98243" transform="translate(224.827232 394.653002)" fill="#4f71b3" stroke-width="0"/><ellipse rx="3.98243" ry="3.98243" transform="translate(224.827232 304.653002)" fill="#4f71b3" stroke-width="0"/><ellipse rx="3.98243" ry="3.98243" transform="translate(224.827232 334.653002)" fill="#4f71b3" stroke-width="0"/><ellipse rx="3.98243" ry="3.98243" transform="translate(224.827232 274.653002)" fill="#4f71b3" stroke-width="0"/><ellipse rx="3.98243" ry="3.98243" transform="translate(224.827232 154.653002)" fill="#4f71b3" stroke-width="0"/><ellipse rx="3.98243" ry="3.98243" transform="translate(224.827232 214.653002)" fill="#4f71b3" stroke-width="0"/><ellipse rx="3.98243" ry="3.98243" transform="translate(224.827232 244.653002)" fill="#4f71b3" stroke-width="0"/><ellipse rx="3.98243" ry="3.98243" transform="translate(224.827232 184.653002)" fill="#4f71b3" stroke-width="0"/><ellipse rx="3.98243" ry="3.98243" transform="translate(224.827232 94.653002)" fill="#4f71b3" stroke-width="0"/><ellipse rx="3.98243" ry="3.98243" transform="translate(224.827232 124.653002)" fill="#4f71b3" stroke-width="0"/><ellipse rx="3.98243" ry="3.98243" transform="translate(224.827232 64.653002)" fill="#4f71b3" stroke-width="0"/><ellipse rx="3.98243" ry="3.98243" transform="translate(124.827232 34.653002)" fill="#4f71b3" stroke-width="0"/><ellipse rx="3.98243" ry="3.98243" transform="translate(175.827232 44.653002)" fill="#4f71b3" stroke-width="0"/><ellipse rx="3.98243" ry="3.98243" transform="translate(175.827232 254.653002)" fill="#4f71b3" stroke-width="0"/><ellipse rx="3.98243" ry="3.98243" transform="translate(175.827232 374.653002)" fill="#4f71b3" stroke-width="0"/><ellipse rx="3.98243" ry="3.98243" transform="translate(175.827232 434.653002)" fill="#4f71b3" stroke-width="0"/><ellipse rx="3.98243" ry="3.98243" transform="translate(175.827232 404.653002)" fill="#4f71b3" stroke-width="0"/><ellipse rx="3.98243" ry="3.98243" transform="translate(175.827232 314.653002)" fill="#4f71b3" stroke-width="0"/><ellipse rx="3.98243" ry="3.98243" transform="translate(175.827232 344.653002)" fill="#4f71b3" stroke-width="0"/><ellipse rx="3.98243" ry="3.98243" transform="translate(175.827232 284.653002)" fill="#4f71b3" stroke-width="0"/><ellipse rx="3.98243" ry="3.98243" transform="translate(175.827232 164.653002)" fill="#4f71b3" stroke-width="0"/><ellipse rx="3.98243" ry="3.98243" transform="translate(175.827232 224.653002)" fill="#4f71b3" stroke-width="0"/><ellipse rx="3.98243" ry="3.98243" transform="translate(175.827232 254.653002)" fill="#4f71b3" stroke-width="0"/><ellipse rx="3.98243" ry="3.98243" transform="translate(175.827232 194.653002)" fill="#4f71b3" stroke-width="0"/><ellipse rx="3.98243" ry="3.98243" transform="translate(175.827232 104.653002)" fill="#4f71b3" stroke-width="0"/><ellipse rx="3.98243" ry="3.98243" transform="translate(175.827232 134.653002)" fill="#4f71b3" stroke-width="0"/><ellipse rx="3.98243" ry="3.98243" transform="translate(175.827232 74.653002)" fill="#4f71b3" stroke-width="0"/><ellipse rx="3.98243" ry="3.98243" transform="translate(124.827232 244.653002)" fill="#4f71b3" stroke-width="0"/><ellipse rx="3.98243" ry="3.98243" transform="translate(124.827232 364.653002)" fill="#4f71b3" stroke-width="0"/><ellipse rx="3.98243" ry="3.98243" transform="translate(124.827232 424.653002)" fill="#4f71b3" stroke-width="0"/><ellipse rx="3.98243" ry="3.98243" transform="translate(124.827232 454.653002)" fill="#4f71b3" stroke-width="0"/><ellipse rx="3.98243" ry="3.98243" transform="translate(124.827232 394.653002)" fill="#4f71b3" stroke-width="0"/><ellipse rx="3.98243" ry="3.98243" transform="translate(124.827232 304.653002)" fill="#4f71b3" stroke-width="0"/><ellipse rx="3.98243" ry="3.98243" transform="translate(124.827232 334.653002)" fill="#4f71b3" stroke-width="0"/><ellipse rx="3.98243" ry="3.98243" transform="translate(124.827232 274.653002)" fill="#4f71b3" stroke-width="0"/><ellipse rx="3.98243" ry="3.98243" transform="translate(124.827232 154.653002)" fill="#4f71b3" stroke-width="0"/><ellipse rx="3.98243" ry="3.98243" transform="translate(124.827232 214.653002)" fill="#4f71b3" stroke-width="0"/><ellipse rx="3.98243" ry="3.98243" transform="translate(124.827232 244.653002)" fill="#4f71b3" stroke-width="0"/><ellipse rx="3.98243" ry="3.98243" transform="translate(124.827232 184.653002)" fill="#4f71b3" stroke-width="0"/><ellipse rx="3.98243" ry="3.98243" transform="translate(124.827232 94.653002)" fill="#4f71b3" stroke-width="0"/><ellipse rx="3.98243" ry="3.98243" transform="translate(124.827232 124.653002)" fill="#4f71b3" stroke-width="0"/><ellipse rx="3.98243" ry="3.98243" transform="translate(124.827232 64.653002)" fill="#4f71b3" stroke-width="0"/><ellipse rx="3.98243" ry="3.98243" transform="translate(75.827232 44.653002)" fill="#4f71b3" stroke-width="0"/><ellipse rx="3.98243" ry="3.98243" transform="translate(75.827232 254.653002)" fill="#4f71b3" stroke-width="0"/><ellipse rx="3.98243" ry="3.98243" transform="translate(75.827232 374.653002)" fill="#4f71b3" stroke-width="0"/><ellipse rx="3.98243" ry="3.98243" transform="translate(75.827232 434.653002)" fill="#4f71b3" stroke-width="0"/><ellipse rx="3.98243" ry="3.98243" transform="translate(75.827232 404.653002)" fill="#4f71b3" stroke-width="0"/><ellipse rx="3.98243" ry="3.98243" transform="translate(75.827232 314.653002)" fill="#4f71b3" stroke-width="0"/><ellipse rx="3.98243" ry="3.98243" transform="translate(75.827232 344.653002)" fill="#4f71b3" stroke-width="0"/><ellipse rx="3.98243" ry="3.98243" transform="translate(75.827232 284.653002)" fill="#4f71b3" stroke-width="0"/><ellipse rx="3.98243" ry="3.98243" transform="translate(75.827232 164.653002)" fill="#4f71b3" stroke-width="0"/><ellipse rx="3.98243" ry="3.98243" transform="translate(75.827232 224.653002)" fill="#4f71b3" stroke-width="0"/><ellipse rx="3.98243" ry="3.98243" transform="translate(75.827232 254.653002)" fill="#4f71b3" stroke-width="0"/><ellipse rx="3.98243" ry="3.98243" transform="translate(75.827232 194.653002)" fill="#4f71b3" stroke-width="0"/><ellipse rx="3.98243" ry="3.98243" transform="translate(75.827232 104.653002)" fill="#4f71b3" stroke-width="0"/><ellipse rx="3.98243" ry="3.98243" transform="translate(75.827232 134.653002)" fill="#4f71b3" stroke-width="0"/><ellipse rx="3.98243" ry="3.98243" transform="translate(75.827232 74.653002)" fill="#4f71b3" stroke-width="0"/><ellipse rx="3.98243" ry="3.98243" transform="translate(24.827232 244.653002)" fill="#4f71b3" stroke-width="0"/><ellipse rx="3.98243" ry="3.98243" transform="translate(24.827232 364.653002)" fill="#4f71b3" stroke-width="0"/><ellipse rx="3.98243" ry="3.98243" transform="translate(24.827232 424.653002)" fill="#4f71b3" stroke-width="0"/><ellipse rx="3.98243" ry="3.98243" transform="translate(24.827232 454.653002)" fill="#4f71b3" stroke-width="0"/><ellipse rx="3.98243" ry="3.98243" transform="translate(24.827232 394.653002)" fill="#4f71b3" stroke-width="0"/><ellipse rx="3.98243" ry="3.98243" transform="translate(24.827232 304.653002)" fill="#4f71b3" stroke-width="0"/><ellipse rx="3.98243" ry="3.98243" transform="translate(24.827232 334.653002)" fill="#4f71b3" stroke-width="0"/><ellipse rx="3.98243" ry="3.98243" transform="translate(24.827232 274.653002)" fill="#4f71b3" stroke-width="0"/><ellipse rx="3.98243" ry="3.98243" transform="translate(24.827232 154.653002)" fill="#4f71b3" stroke-width="0"/><ellipse rx="3.98243" ry="3.98243" transform="translate(24.827232 214.653002)" fill="#4f71b3" stroke-width="0"/><ellipse rx="3.98243" ry="3.98243" transform="translate(24.827232 244.653002)" fill="#4f71b3" stroke-width="0"/><ellipse rx="3.98243" ry="3.98243" transform="translate(24.827232 184.653002)" fill="#4f71b3" stroke-width="0"/><ellipse rx="3.98243" ry="3.98243" transform="translate(24.827232 94.653002)" fill="#4f71b3" stroke-width="0"/><ellipse rx="3.98243" ry="3.98243" transform="translate(24.827232 124.653002)" fill="#4f71b3" stroke-width="0"/><ellipse rx="3.98243" ry="3.98243" transform="translate(24.827232 64.653002)" fill="#4f71b3" stroke-width="0"/></svg>