<svg id="eelc0PSWNOk1" xmlns="http://www.w3.org/2000/svg" xmlns:xlink="http://www.w3.org/1999/xlink" viewBox="0 0 300 300" shape-rendering="geometricPrecision" text-rendering="geometricPrecision"><ellipse rx="150" ry="150" transform="translate(150 150)" fill="#4f71b3" stroke-width="0"/><ellipse rx="5.115425" ry="6.295908" transform="translate(202.334732 18.100735)" fill="#d2dbed" stroke-width="0"/><ellipse rx="5.115425" ry="6.295907" transform="translate(225.944386 40.136412)" fill="#d2dbed" stroke-width="0"/><ellipse rx="4.721931" ry="5.115425" transform="translate(269.622245 98.767051)" fill="#d2dbed" stroke-width="0"/><ellipse rx="4.721931" ry="4.328436" transform="translate(251.521511 62.565583)" fill="#d2dbed" stroke-width="0"/><ellipse rx="4.918678" ry="5.115425" transform="translate(207.25341 275.052466)" fill="#d2dbed" stroke-width="0"/><ellipse rx="3.147954" ry="2.360965" transform="translate(234.207765 262.854144)" fill="#d2dbed" stroke-width="0"/><ellipse rx="6.689401" ry="7.082896" transform="translate(258.210913 236.096537)" fill="#d2dbed" stroke-width="0"/><ellipse rx="3.147954" ry="5.115425" transform="translate(288.509969 185.335782)" fill="#d2dbed" stroke-width="0"/><ellipse rx="3.147954" ry="4.171039" transform="translate(288.509969 145.828961)" fill="#d2dbed" stroke-width="0"/><ellipse rx="5.508919" ry="5.508919" transform="translate(286.149004 116.474292)" fill="#d2dbed" stroke-width="0"/><ellipse rx="3.147954" ry="3.541448" transform="translate(277.492131 171.956978)" fill="#d2dbed" stroke-width="0"/><ellipse rx="1.573977" ry="2.754459" transform="translate(275.918154 216.028332)" fill="#d2dbed" stroke-width="0"/><ellipse rx="2.360966" ry="2.360965" transform="translate(267.26128 69.254985)" fill="#d2dbed" stroke-width="0"/><ellipse rx="2.360965" ry="3.147954" transform="translate(244.438615 43.284366)" fill="#d2dbed" stroke-width="0"/><ellipse rx="1.573977" ry="2.360965" transform="translate(275.918154 129.853096)" fill="#d2dbed" stroke-width="0"/><ellipse rx="2.360966" ry="2.360965" transform="translate(209.811123 26.757608)" fill="#d2dbed" stroke-width="0"/><ellipse rx="5.50892" ry="5.115425" transform="translate(236.568731 248.294858)" fill="#d2dbed" stroke-width="0"/><ellipse rx="4.721931" ry="4.721931" transform="translate(251.521511 85.781742)" fill="#d2dbed" stroke-width="0"/><ellipse rx="3.344701" ry="3.934942" transform="translate(254.866213 194.386149)" fill="#d2dbed" stroke-width="0"/><ellipse rx="5.705666" ry="6.80745" transform="translate(263.91658 139.021511)" fill="#d2dbed" stroke-width="0"/><ellipse rx="2.754459" ry="2.360965" transform="translate(239.323191 69.254985)" fill="#d2dbed" stroke-width="0"/><ellipse rx="1.967471" ry="2.75446" transform="translate(188.16894 9.050368)" fill="#d2dbed" stroke-width="0"/><ellipse rx="2.557713" ry="2.557712" transform="translate(223.386674 272.494754)" fill="#d2dbed" stroke-width="0"/><ellipse rx="3.541448" ry="2.754459" transform="translate(193.677859 282.922351)" fill="#d2dbed" stroke-width="0"/></svg>
