<svg id="ejus7Cpti541" xmlns="http://www.w3.org/2000/svg" xmlns:xlink="http://www.w3.org/1999/xlink" viewBox="0 0 640 480" shape-rendering="geometricPrecision" text-rendering="geometricPrecision"><path d="M1040.000001,304.958246q37.424777-.000001,19.140041,47.540309q9.142368,96.909095-5.48542,159.077193c-14.627788,62.168098,43.883364,45.711838-13.654622,85.938254s-11.944007,12.799315-291.700451,29.255576-279.756444-12.799314-579.626097-3.656947-263.300183,34.740997-257.814762-96.909095s64.917272-400.435691,89.141314-228.559184c62.62199-25.598629,106.505354-122.507725,159.531085-124.336198s43.883363,54.854206,107.879935,56.682679s29.255576-38.397945,100.566042-56.682679s65.825043,100.566042,142.620929,93.252148s62.168101-54.854205,102.394518-93.252148s56.682678-58.511151,87.766727-58.511151s100.566042,29.255576,107.879936,93.252148s25.598627,69.481992,53.025729,58.511151s38.397944-62.168098,82.281308-65.825045s58.629011,104.222989,96.053788,104.222989Z" transform="matrix(1.013026 0 0 1-255.474084-1.283284)" fill="#8197cc" stroke-width="2.08"/><ellipse rx="4.338151" ry="2.002223" transform="translate(515.354706 148.149817)" fill="#d2dbed" stroke-width="0"/><ellipse rx="4.171299" ry="1.334816" transform="translate(-113.947198 187.159823)" fill="#d2dbed" stroke-width="0"/><ellipse rx="3.503891" ry="1.66852" transform="translate(-97.595704 181.82056)" fill="#d2dbed" stroke-width="0"/><ellipse rx="3.503891" ry="1.66852" transform="translate(-97.595704 181.82056)" fill="#d2dbed" stroke-width="0"/><ellipse rx="3.670744" ry="1.167963" transform="translate(-81.411063 177.315557)" fill="#d2dbed" stroke-width="0"/><ellipse rx="4.338151" ry="2.002223" transform="translate(-107.439971 180.149817)" fill="#d2dbed" stroke-width="0"/><ellipse rx="4.338151" ry="2.002223" transform="translate(115.560029 177.149817)" fill="#d2dbed" stroke-width="0"/><ellipse rx="4.338151" ry="2.002223" transform="translate(136.560029 174.149817)" fill="#d2dbed" stroke-width="0"/><ellipse rx="4.338151" ry="2.002223" transform="translate(157.354706 184.149817)" fill="#d2dbed" stroke-width="0"/><ellipse rx="4.338151" ry="2.002223" transform="translate(462.354706 121.149817)" fill="#d2dbed" stroke-width="0"/><ellipse rx="4.338151" ry="2.002223" transform="translate(436.354706 119.149817)" fill="#d2dbed" stroke-width="0"/><ellipse rx="4.338151" ry="2.002223" transform="translate(476.354706 124.149817)" fill="#d2dbed" stroke-width="0"/><ellipse rx="4.338151" ry="2.002223" transform="translate(487.354706 129.149817)" fill="#d2dbed" stroke-width="0"/><ellipse rx="4.338151" ry="2.002223" transform="translate(457.354706 139.149817)" fill="#d2dbed" stroke-width="0"/><ellipse rx="4.338151" ry="2.002223" transform="translate(435.354706 131.149817)" fill="#d2dbed" stroke-width="0"/><ellipse rx="4.338151" ry="2.002223" transform="translate(494.354706 137.149817)" fill="#d2dbed" stroke-width="0"/><ellipse rx="4.338151" ry="2.002223" transform="translate(410.354706 140.149817)" fill="#d2dbed" stroke-width="0"/><ellipse rx="4.338151" ry="2.002223" transform="translate(472.354706 133.149817)" fill="#d2dbed" stroke-width="0"/><ellipse rx="4.338151" ry="2.002223" transform="translate(505.354706 138.149817)" fill="#d2dbed" stroke-width="0"/><ellipse rx="4.338151" ry="2.002223" transform="translate(365.354706 178.149817)" fill="#d2dbed" stroke-width="0"/><ellipse rx="4.338151" ry="2.002223" transform="translate(149.560029 179.149817)" fill="#d2dbed" stroke-width="0"/><ellipse rx="4.338151" ry="2.002223" transform="translate(94.560029 187.720161)" fill="#d2dbed" stroke-width="0"/><ellipse rx="4.338151" ry="2.002223" transform="translate(-61.439971 185.720161)" fill="#d2dbed" stroke-width="0"/><ellipse rx="4.338151" ry="2.002223" transform="translate(691.354706 205.149817)" fill="#d2dbed" stroke-width="0"/><ellipse rx="4.338151" ry="2.002223" transform="translate(709.354706 209.149817)" fill="#d2dbed" stroke-width="0"/><ellipse rx="4.338151" ry="2.002223" transform="translate(670.354706 216.149817)" fill="#d2dbed" stroke-width="0"/><ellipse rx="4.338151" ry="2.002223" transform="translate(712.354706 216.149817)" fill="#d2dbed" stroke-width="0"/><ellipse rx="2.38409" ry="1.043039" transform="translate(-133.89537 201.291487)" fill="#d2dbed" stroke-width="0"/><ellipse rx="2.38409" ry="1.043039" transform="translate(-53.89537 198.291487)" fill="#d2dbed" stroke-width="0"/><ellipse rx="2.38409" ry="1.043039" transform="translate(-73.89537 188.291487)" fill="#d2dbed" stroke-width="0"/><ellipse rx="2.38409" ry="1.043039" transform="translate(-93.89537 198.291487)" fill="#d2dbed" stroke-width="0"/><ellipse rx="2.38409" ry="1.043039" transform="translate(-90.89537 186.291487)" fill="#d2dbed" stroke-width="0"/><ellipse rx="2.38409" ry="1.043039" transform="translate(-140.89537 206.291487)" fill="#d2dbed" stroke-width="0"/><ellipse rx="2.38409" ry="1.043039" transform="translate(-120.89537 196.291487)" fill="#d2dbed" stroke-width="0"/><ellipse rx="2.38409" ry="1.043039" transform="translate(-101.89537 194.291487)" fill="#d2dbed" stroke-width="0"/><ellipse rx="2.38409" ry="1.043039" transform="translate(-71.89537 204.291487)" fill="#d2dbed" stroke-width="0"/><ellipse rx="2.38409" ry="1.043039" transform="translate(-81.89537 194.291487)" fill="#d2dbed" stroke-width="0"/><ellipse rx="2.38409" ry="1.043039" transform="translate(-69.89537 194.291487)" fill="#d2dbed" stroke-width="0"/><ellipse rx="2.38409" ry="1.043039" transform="translate(-49.89537 204.291487)" fill="#d2dbed" stroke-width="0"/><ellipse rx="2.38409" ry="1.043039" transform="translate(-59.89537 204.291487)" fill="#d2dbed" stroke-width="0"/><ellipse rx="2.38409" ry="1.043039" transform="translate(-109.89537 204.291487)" fill="#d2dbed" stroke-width="0"/><ellipse rx="2.38409" ry="1.043039" transform="translate(-109.89537 195.291487)" fill="#d2dbed" stroke-width="0"/><ellipse rx="2.38409" ry="1.043039" transform="translate(-154.89537 215.291487)" fill="#d2dbed" stroke-width="0"/><ellipse rx="2.38409" ry="1.043039" transform="translate(-44.89537 213.291487)" fill="#d2dbed" stroke-width="0"/><ellipse rx="2.38409" ry="1.043039" transform="translate(-54.89537 213.291487)" fill="#d2dbed" stroke-width="0"/><ellipse rx="2.38409" ry="1.043039" transform="translate(-37.89537 217.291487)" fill="#d2dbed" stroke-width="0"/><ellipse rx="2.38409" ry="1.043039" transform="translate(-37.89537 227.291487)" fill="#d2dbed" stroke-width="0"/><ellipse rx="2.38409" ry="1.043039" transform="translate(-47.89537 225.291487)" fill="#d2dbed" stroke-width="0"/><ellipse rx="2.38409" ry="1.043039" transform="translate(-87.89537 215.291487)" fill="#d2dbed" stroke-width="0"/><ellipse rx="2.38409" ry="1.043039" transform="translate(-163.89537 222.291487)" fill="#d2dbed" stroke-width="0"/><ellipse rx="2.38409" ry="1.043039" transform="translate(-143.89537 212.291487)" fill="#d2dbed" stroke-width="0"/><ellipse rx="2.38409" ry="1.043039" transform="translate(-23.89537 223.291487)" fill="#d2dbed" stroke-width="0"/><ellipse rx="2.38409" ry="1.043039" transform="translate(-3.89537 233.291487)" fill="#d2dbed" stroke-width="0"/><ellipse rx="2.38409" ry="1.043039" transform="translate(6.10463 231.291487)" fill="#d2dbed" stroke-width="0"/><ellipse rx="2.38409" ry="1.043039" transform="translate(-8.89537 228.291487)" fill="#d2dbed" stroke-width="0"/><ellipse rx="2.38409" ry="1.043039" transform="translate(15.10463 232.291487)" fill="#d2dbed" stroke-width="0"/><ellipse rx="2.38409" ry="1.043039" transform="translate(8.10463 235.291487)" fill="#d2dbed" stroke-width="0"/><ellipse rx="2.38409" ry="1.043039" transform="translate(21.10463 236.291487)" fill="#d2dbed" stroke-width="0"/><ellipse rx="2.38409" ry="1.043039" transform="translate(61.10463 216.291487)" fill="#d2dbed" stroke-width="0"/><ellipse rx="2.38409" ry="1.043039" transform="translate(71.10463 206.291487)" fill="#d2dbed" stroke-width="0"/><ellipse rx="2.38409" ry="1.043039" transform="translate(69.10463 213.291487)" fill="#d2dbed" stroke-width="0"/><ellipse rx="2.38409" ry="1.043039" transform="translate(79.10463 193.291487)" fill="#d2dbed" stroke-width="0"/><ellipse rx="2.38409" ry="1.043039" transform="translate(126.10463 173.291487)" fill="#d2dbed" stroke-width="0"/><ellipse rx="2.38409" ry="1.043039" transform="translate(116.10463 183.291487)" fill="#d2dbed" stroke-width="0"/><ellipse rx="2.38409" ry="1.043039" transform="translate(146.10463 193.291487)" fill="#d2dbed" stroke-width="0"/><ellipse rx="2.38409" ry="1.043039" transform="translate(136.10463 183.291487)" fill="#d2dbed" stroke-width="0"/><ellipse rx="2.38409" ry="1.043039" transform="translate(146.10463 185.291487)" fill="#d2dbed" stroke-width="0"/><ellipse rx="2.38409" ry="1.043039" transform="translate(106.10463 188.291487)" fill="#d2dbed" stroke-width="0"/><ellipse rx="2.38409" ry="1.043039" transform="translate(126.10463 188.291487)" fill="#d2dbed" stroke-width="0"/><ellipse rx="2.38409" ry="1.043039" transform="translate(161.10463 190.291487)" fill="#d2dbed" stroke-width="0"/><ellipse rx="2.38409" ry="1.043039" transform="translate(171.10463 200.291487)" fill="#d2dbed" stroke-width="0"/><ellipse rx="2.38409" ry="1.043039" transform="translate(166.10463 195.291487)" fill="#d2dbed" stroke-width="0"/><ellipse rx="2.38409" ry="1.043039" transform="translate(176.10463 205.291487)" fill="#d2dbed" stroke-width="0"/><ellipse rx="2.38409" ry="1.043039" transform="translate(136.10463 193.291487)" fill="#d2dbed" stroke-width="0"/><ellipse rx="2.38409" ry="1.043039" transform="translate(176.10463 213.291487)" fill="#d2dbed" stroke-width="0"/><ellipse rx="2.38409" ry="1.043039" transform="translate(183.10463 215.291487)" fill="#d2dbed" stroke-width="0"/><ellipse rx="2.38409" ry="1.043039" transform="translate(153.10463 195.291487)" fill="#d2dbed" stroke-width="0"/><ellipse rx="2.38409" ry="1.043039" transform="translate(113.10463 195.291487)" fill="#d2dbed" stroke-width="0"/><ellipse rx="2.38409" ry="1.043039" transform="translate(93.10463 205.291487)" fill="#d2dbed" stroke-width="0"/><ellipse rx="2.38409" ry="1.043039" transform="translate(95.10463 195.291487)" fill="#d2dbed" stroke-width="0"/><ellipse rx="2.38409" ry="1.043039" transform="translate(185.10463 223.291487)" fill="#d2dbed" stroke-width="0"/><ellipse rx="2.38409" ry="1.043039" transform="translate(190.10463 226.291487)" fill="#d2dbed" stroke-width="0"/><ellipse rx="2.38409" ry="1.043039" transform="translate(178.10463 221.291487)" fill="#d2dbed" stroke-width="0"/><ellipse rx="2.38409" ry="1.043039" transform="translate(192.10463 231.291487)" fill="#d2dbed" stroke-width="0"/><ellipse rx="2.38409" ry="1.043039" transform="translate(199.10463 239.291487)" fill="#d2dbed" stroke-width="0"/><ellipse rx="2.38409" ry="1.043039" transform="translate(-241.89537 296.291487)" fill="#d2dbed" stroke-width="0"/><ellipse rx="2.38409" ry="1.043039" transform="translate(-231.89537 286.291487)" fill="#d2dbed" stroke-width="0"/><ellipse rx="2.38409" ry="1.043039" transform="translate(-235.89537 291.291487)" fill="#d2dbed" stroke-width="0"/><ellipse rx="2.38409" ry="1.043039" transform="translate(-165.89537 229.291487)" fill="#d2dbed" stroke-width="0"/><ellipse rx="2.38409" ry="1.043039" transform="translate(-151.89537 220.291487)" fill="#d2dbed" stroke-width="0"/><ellipse rx="2.38409" ry="1.043039" transform="translate(-124.89537 202.291487)" fill="#d2dbed" stroke-width="0"/><ellipse rx="2.38409" ry="1.043039" transform="translate(-133.89537 194.291487)" fill="#d2dbed" stroke-width="0"/><ellipse rx="2.38409" ry="1.043039" transform="translate(28.10463 233.291487)" fill="#d2dbed" stroke-width="0"/><ellipse rx="2.38409" ry="1.043039" transform="translate(37.10463 229.291487)" fill="#d2dbed" stroke-width="0"/><ellipse rx="2.38409" ry="1.043039" transform="translate(47.10463 226.291487)" fill="#d2dbed" stroke-width="0"/><ellipse rx="2.38409" ry="1.043039" transform="translate(57.10463 220.291487)" fill="#d2dbed" stroke-width="0"/><ellipse rx="2.38409" ry="1.043039" transform="translate(54.10463 225.291487)" fill="#d2dbed" stroke-width="0"/><ellipse rx="2.38409" ry="1.043039" transform="translate(44.10463 231.291487)" fill="#d2dbed" stroke-width="0"/><ellipse rx="2.38409" ry="1.043039" transform="translate(34.10463 236.291487)" fill="#d2dbed" stroke-width="0"/><ellipse rx="2.38409" ry="1.043039" transform="translate(124.10463 196.291487)" fill="#d2dbed" stroke-width="0"/><ellipse rx="2.38409" ry="1.043039" transform="translate(158.10463 203.291487)" fill="#d2dbed" stroke-width="0"/><ellipse rx="2.38409" ry="1.043039" transform="translate(87.10463 200.291487)" fill="#d2dbed" stroke-width="0"/><ellipse rx="2.38409" ry="1.043039" transform="translate(86.10463 190.291487)" fill="#d2dbed" stroke-width="0"/><ellipse rx="2.38409" ry="1.043039" transform="translate(204.10463 245.291487)" fill="#d2dbed" stroke-width="0"/><ellipse rx="2.38409" ry="1.043039" transform="translate(209.10463 251.291487)" fill="#d2dbed" stroke-width="0"/><ellipse rx="2.38409" ry="1.043039" transform="translate(218.10463 259.291487)" fill="#d2dbed" stroke-width="0"/><ellipse rx="2.38409" ry="1.043039" transform="translate(224.10463 261.291487)" fill="#d2dbed" stroke-width="0"/><ellipse rx="2.38409" ry="1.043039" transform="translate(207.10463 258.291487)" fill="#d2dbed" stroke-width="0"/><ellipse rx="2.38409" ry="1.043039" transform="translate(237.10463 268.291487)" fill="#d2dbed" stroke-width="0"/><ellipse rx="2.38409" ry="1.043039" transform="translate(257.10463 268.291487)" fill="#d2dbed" stroke-width="0"/><ellipse rx="2.38409" ry="1.043039" transform="translate(267.10463 268.291487)" fill="#d2dbed" stroke-width="0"/><ellipse rx="2.38409" ry="1.043039" transform="translate(262.10463 271.291487)" fill="#d2dbed" stroke-width="0"/><ellipse rx="2.38409" ry="1.043039" transform="translate(250.10463 269.291487)" fill="#d2dbed" stroke-width="0"/><ellipse rx="2.38409" ry="1.043039" transform="translate(287.10463 264.291487)" fill="#d2dbed" stroke-width="0"/><ellipse rx="2.38409" ry="1.043039" transform="translate(297.10463 259.291487)" fill="#d2dbed" stroke-width="0"/><ellipse rx="2.38409" ry="1.043039" transform="translate(307.10463 255.291487)" fill="#d2dbed" stroke-width="0"/><ellipse rx="2.38409" ry="1.043039" transform="translate(314.10463 250.291487)" fill="#d2dbed" stroke-width="0"/><ellipse rx="2.38409" ry="1.043039" transform="translate(324.10463 240.291487)" fill="#d2dbed" stroke-width="0"/><ellipse rx="2.38409" ry="1.043039" transform="translate(330.10463 235.291487)" fill="#d2dbed" stroke-width="0"/><ellipse rx="2.38409" ry="1.043039" transform="translate(333.10463 228.291487)" fill="#d2dbed" stroke-width="0"/><ellipse rx="2.38409" ry="1.043039" transform="translate(343.10463 208.291487)" fill="#d2dbed" stroke-width="0"/><ellipse rx="2.38409" ry="1.043039" transform="translate(353.10463 198.291487)" fill="#d2dbed" stroke-width="0"/><ellipse rx="2.38409" ry="1.043039" transform="translate(341.10463 218.291487)" fill="#d2dbed" stroke-width="0"/><ellipse rx="2.38409" ry="1.043039" transform="translate(361.10463 184.291487)" fill="#d2dbed" stroke-width="0"/><ellipse rx="2.38409" ry="1.043039" transform="translate(411.10463 158.291487)" fill="#d2dbed" stroke-width="0"/><ellipse rx="2.38409" ry="1.043039" transform="translate(421.10463 138.291487)" fill="#d2dbed" stroke-width="0"/><ellipse rx="2.38409" ry="1.043039" transform="translate(451.10463 128.291487)" fill="#d2dbed" stroke-width="0"/><ellipse rx="2.38409" ry="1.043039" transform="translate(461.10463 129.291487)" fill="#d2dbed" stroke-width="0"/><ellipse rx="2.38409" ry="1.043039" transform="translate(451.10463 118.291487)" fill="#d2dbed" stroke-width="0"/><ellipse rx="2.38409" ry="1.043039" transform="translate(500.10463 134.291487)" fill="#d2dbed" stroke-width="0"/><ellipse rx="2.38409" ry="1.043039" transform="translate(441.10463 138.291487)" fill="#d2dbed" stroke-width="0"/><ellipse rx="2.38409" ry="1.043039" transform="translate(391.10463 158.291487)" fill="#d2dbed" stroke-width="0"/><ellipse rx="2.38409" ry="1.043039" transform="translate(515.10463 140.291487)" fill="#d2dbed" stroke-width="0"/><ellipse rx="2.38409" ry="1.043039" transform="translate(525.10463 150.291487)" fill="#d2dbed" stroke-width="0"/><ellipse rx="2.38409" ry="1.043039" transform="translate(495.10463 148.291487)" fill="#d2dbed" stroke-width="0"/><ellipse rx="2.38409" ry="1.043039" transform="translate(505.10463 150.291487)" fill="#d2dbed" stroke-width="0"/><ellipse rx="2.38409" ry="1.043039" transform="translate(475.10463 140.291487)" fill="#d2dbed" stroke-width="0"/><ellipse rx="2.38409" ry="1.043039" transform="translate(475.10463 150.291487)" fill="#d2dbed" stroke-width="0"/><ellipse rx="2.38409" ry="1.043039" transform="translate(455.10463 150.291487)" fill="#d2dbed" stroke-width="0"/><ellipse rx="2.38409" ry="1.043039" transform="translate(455.10463 150.291487)" fill="#d2dbed" stroke-width="0"/><ellipse rx="2.38409" ry="1.043039" transform="translate(445.10463 146.291487)" fill="#d2dbed" stroke-width="0"/><ellipse rx="2.38409" ry="1.043039" transform="translate(425.10463 126.291487)" fill="#d2dbed" stroke-width="0"/><ellipse rx="2.38409" ry="1.043039" transform="translate(398.10463 147.291487)" fill="#d2dbed" stroke-width="0"/><ellipse rx="2.38409" ry="1.043039" transform="translate(375.10463 167.291487)" fill="#d2dbed" stroke-width="0"/><ellipse rx="2.38409" ry="1.043039" transform="translate(104.10463 180.291487)" fill="#d2dbed" stroke-width="0"/><ellipse rx="2.38409" ry="1.043039" transform="translate(-72.89537 180.291487)" fill="#d2dbed" stroke-width="0"/><ellipse rx="2.38409" ry="1.043039" transform="translate(-92.89537 176.291487)" fill="#d2dbed" stroke-width="0"/><ellipse rx="2.38409" ry="1.043039" transform="translate(435.10463 149.291487)" fill="#d2dbed" stroke-width="0"/><ellipse rx="2.38409" ry="1.043039" transform="translate(445.10463 166.291487)" fill="#d2dbed" stroke-width="0"/><ellipse rx="2.38409" ry="1.043039" transform="translate(485.10463 146.291487)" fill="#d2dbed" stroke-width="0"/><ellipse rx="2.38409" ry="1.043039" transform="translate(535.10463 154.291487)" fill="#d2dbed" stroke-width="0"/><ellipse rx="2.38409" ry="1.043039" transform="translate(535.10463 164.291487)" fill="#d2dbed" stroke-width="0"/><ellipse rx="2.38409" ry="1.043039" transform="translate(543.10463 164.291487)" fill="#d2dbed" stroke-width="0"/><ellipse rx="2.38409" ry="1.043039" transform="translate(544.10463 173.291487)" fill="#d2dbed" stroke-width="0"/><ellipse rx="2.38409" ry="1.043039" transform="translate(550.10463 179.291487)" fill="#d2dbed" stroke-width="0"/><ellipse rx="2.38409" ry="1.043039" transform="translate(554.10463 188.291487)" fill="#d2dbed" stroke-width="0"/><ellipse rx="2.38409" ry="1.043039" transform="translate(559.10463 200.291487)" fill="#d2dbed" stroke-width="0"/><ellipse rx="2.38409" ry="1.043039" transform="translate(559.10463 210.291487)" fill="#d2dbed" stroke-width="0"/><ellipse rx="2.38409" ry="1.043039" transform="translate(553.10463 204.291487)" fill="#d2dbed" stroke-width="0"/><ellipse rx="2.38409" ry="1.043039" transform="translate(550.10463 196.291487)" fill="#d2dbed" stroke-width="0"/><ellipse rx="2.38409" ry="1.043039" transform="translate(560.10463 216.291487)" fill="#d2dbed" stroke-width="0"/><ellipse rx="2.38409" ry="1.043039" transform="translate(490.10463 156.291487)" fill="#d2dbed" stroke-width="0"/><ellipse rx="2.38409" ry="1.043039" transform="translate(460.10463 163.291487)" fill="#d2dbed" stroke-width="0"/><ellipse rx="2.38409" ry="1.043039" transform="translate(400.10463 166.291487)" fill="#d2dbed" stroke-width="0"/><ellipse rx="2.38409" ry="1.043039" transform="translate(560.10463 226.291487)" fill="#d2dbed" stroke-width="0"/><ellipse rx="2.38409" ry="1.043039" transform="translate(568.10463 246.291487)" fill="#d2dbed" stroke-width="0"/><ellipse rx="2.38409" ry="1.043039" transform="translate(567.10463 254.291487)" fill="#d2dbed" stroke-width="0"/><ellipse rx="2.38409" ry="1.043039" transform="translate(573.10463 258.291487)" fill="#d2dbed" stroke-width="0"/><ellipse rx="2.38409" ry="1.043039" transform="translate(580.10463 266.291487)" fill="#d2dbed" stroke-width="0"/><ellipse rx="2.38409" ry="1.043039" transform="translate(590.10463 271.291487)" fill="#d2dbed" stroke-width="0"/><ellipse rx="2.38409" ry="1.043039" transform="translate(600.10463 271.291487)" fill="#d2dbed" stroke-width="0"/><ellipse rx="2.38409" ry="1.043039" transform="translate(596.10463 275.291487)" fill="#d2dbed" stroke-width="0"/><ellipse rx="2.38409" ry="1.043039" transform="translate(609.10463 271.291487)" fill="#d2dbed" stroke-width="0"/><ellipse rx="2.38409" ry="1.043039" transform="translate(619.10463 266.291487)" fill="#d2dbed" stroke-width="0"/><ellipse rx="2.38409" ry="1.043039" transform="translate(629.10463 261.291487)" fill="#d2dbed" stroke-width="0"/><ellipse rx="2.38409" ry="1.043039" transform="translate(639.10463 251.291487)" fill="#d2dbed" stroke-width="0"/><ellipse rx="2.38409" ry="1.043039" transform="translate(645.10463 247.291487)" fill="#d2dbed" stroke-width="0"/><ellipse rx="2.38409" ry="1.043039" transform="translate(648.10463 241.291487)" fill="#d2dbed" stroke-width="0"/><ellipse rx="2.38409" ry="1.043039" transform="translate(658.10463 231.291487)" fill="#d2dbed" stroke-width="0"/><ellipse rx="2.38409" ry="1.043039" transform="translate(688.10463 211.291487)" fill="#d2dbed" stroke-width="0"/><ellipse rx="2.38409" ry="1.043039" transform="translate(700.10463 202.291487)" fill="#d2dbed" stroke-width="0"/><ellipse rx="2.38409" ry="1.043039" transform="translate(718.10463 211.291487)" fill="#d2dbed" stroke-width="0"/><ellipse rx="2.38409" ry="1.043039" transform="translate(725.10463 216.291487)" fill="#d2dbed" stroke-width="0"/><ellipse rx="2.38409" ry="1.043039" transform="translate(666.10463 221.291487)" fill="#d2dbed" stroke-width="0"/><ellipse rx="2.38409" ry="1.043039" transform="translate(730.10463 225.291487)" fill="#d2dbed" stroke-width="0"/><ellipse rx="2.38409" ry="1.043039" transform="translate(735.10463 231.291487)" fill="#d2dbed" stroke-width="0"/><ellipse rx="2.38409" ry="1.043039" transform="translate(702.10463 215.291487)" fill="#d2dbed" stroke-width="0"/><ellipse rx="2.38409" ry="1.043039" transform="translate(739.10463 235.291487)" fill="#d2dbed" stroke-width="0"/><ellipse rx="2.38409" ry="1.043039" transform="translate(728.10463 231.291487)" fill="#d2dbed" stroke-width="0"/><ellipse rx="2.38409" ry="1.043039" transform="translate(742.10463 241.291487)" fill="#d2dbed" stroke-width="0"/><ellipse rx="2.38409" ry="1.043039" transform="translate(748.10463 261.291487)" fill="#d2dbed" stroke-width="0"/><ellipse rx="2.38409" ry="1.043039" transform="translate(754.10463 265.291487)" fill="#d2dbed" stroke-width="0"/><ellipse rx="2.38409" ry="1.043039" transform="translate(761.10463 275.291487)" fill="#d2dbed" stroke-width="0"/><ellipse rx="2.38409" ry="1.043039" transform="translate(765.10463 283.291487)" fill="#d2dbed" stroke-width="0"/><ellipse rx="2.38409" ry="1.043039" transform="translate(785.10463 303.291487)" fill="#d2dbed" stroke-width="0"/><ellipse rx="2.38409" ry="1.043039" transform="translate(765.10463 293.291487)" fill="#d2dbed" stroke-width="0"/><ellipse rx="2.38409" ry="1.043039" transform="translate(748.10463 253.291487)" fill="#d2dbed" stroke-width="0"/><ellipse rx="2.38409" ry="1.043039" transform="translate(765.10463 293.291487)" fill="#d2dbed" stroke-width="0"/><ellipse rx="2.38409" ry="1.043039" transform="translate(684.10463 218.291487)" fill="#d2dbed" stroke-width="0"/><ellipse rx="2.38409" ry="1.043039" transform="translate(695.10463 223.291487)" fill="#d2dbed" stroke-width="0"/><ellipse rx="2.38409" ry="1.043039" transform="translate(675.10463 233.291487)" fill="#d2dbed" stroke-width="0"/><ellipse rx="2.38409" ry="1.043039" transform="translate(705.10463 223.291487)" fill="#d2dbed" stroke-width="0"/><ellipse rx="2.38409" ry="1.043039" transform="translate(705.10463 233.291487)" fill="#d2dbed" stroke-width="0"/><ellipse rx="2.38409" ry="1.043039" transform="translate(695.10463 223.291487)" fill="#d2dbed" stroke-width="0"/><ellipse rx="2.38409" ry="1.043039" transform="translate(546.10463 184.291487)" fill="#d2dbed" stroke-width="0"/><ellipse rx="2.38409" ry="1.043039" transform="translate(557.10463 194.291487)" fill="#d2dbed" stroke-width="0"/><ellipse rx="2.38409" ry="1.043039" transform="translate(421.10463 148.291487)" fill="#d2dbed" stroke-width="0"/><ellipse rx="2.38409" ry="1.043039" transform="translate(451.10463 118.291487)" fill="#d2dbed" stroke-width="0"/><ellipse rx="2.38409" ry="1.043039" transform="translate(276.10463 266.291487)" fill="#d2dbed" stroke-width="0"/><ellipse rx="2.38409" ry="1.043039" transform="translate(76.10463 200.291487)" fill="#d2dbed" stroke-width="0"/><ellipse rx="2.38409" ry="1.043039" transform="translate(-123.89537 191.291487)" fill="#d2dbed" stroke-width="0"/><ellipse rx="0.632143" ry="0.632143" transform="translate(-186.656841 254.815038)" fill="#d2dbed" stroke-width="0"/><ellipse rx="0.632143" ry="0.632143" transform="translate(-176.656841 244.815038)" fill="#d2dbed" stroke-width="0"/><ellipse rx="0.632143" ry="0.632143" transform="translate(-176.656841 244.815038)" fill="#d2dbed" stroke-width="0"/><ellipse rx="0.632143" ry="0.632143" transform="translate(-156.656841 236.815038)" fill="#d2dbed" stroke-width="0"/><ellipse rx="0.632143" ry="0.632143" transform="translate(-126.656841 216.815038)" fill="#d2dbed" stroke-width="0"/><ellipse rx="0.632143" ry="0.632143" transform="translate(-115.656841 212.815038)" fill="#d2dbed" stroke-width="0"/><ellipse rx="0.632143" ry="0.632143" transform="translate(-75.656841 192.815038)" fill="#d2dbed" stroke-width="0"/><ellipse rx="0.632143" ry="0.632143" transform="translate(-93.656841 192.815038)" fill="#d2dbed" stroke-width="0"/><ellipse rx="0.632143" ry="0.632143" transform="translate(-63.656841 212.815038)" fill="#d2dbed" stroke-width="0"/><ellipse rx="0.632143" ry="0.632143" transform="translate(-33.656841 222.815038)" fill="#d2dbed" stroke-width="0"/><ellipse rx="0.632143" ry="0.632143" transform="translate(-140.656841 199.815038)" fill="#d2dbed" stroke-width="0"/><ellipse rx="0.632143" ry="0.632143" transform="translate(-170.656841 229.815038)" fill="#d2dbed" stroke-width="0"/><ellipse rx="0.632143" ry="0.632143" transform="translate(-169.656841 239.815038)" fill="#d2dbed" stroke-width="0"/><ellipse rx="0.632143" ry="0.632143" transform="translate(-145.656841 219.815038)" fill="#d2dbed" stroke-width="0"/><ellipse rx="0.632143" ry="0.632143" transform="translate(-189.656841 249.815038)" fill="#d2dbed" stroke-width="0"/><ellipse rx="0.632143" ry="0.632143" transform="translate(-209.656841 269.815038)" fill="#d2dbed" stroke-width="0"/><ellipse rx="0.632143" ry="0.632143" transform="translate(-201.656841 267.815038)" fill="#d2dbed" stroke-width="0"/><ellipse rx="0.632143" ry="0.632143" transform="translate(-225.656841 287.815038)" fill="#d2dbed" stroke-width="0"/><ellipse rx="0.632143" ry="0.632143" transform="translate(-75.656841 213.815038)" fill="#d2dbed" stroke-width="0"/><ellipse rx="0.632143" ry="0.632143" transform="translate(-95.656841 204.815038)" fill="#d2dbed" stroke-width="0"/><ellipse rx="0.632143" ry="0.632143" transform="translate(-125.656841 196.815038)" fill="#d2dbed" stroke-width="0"/><ellipse rx="0.632143" ry="0.632143" transform="translate(84.343159 206.815038)" fill="#d2dbed" stroke-width="0"/><ellipse rx="0.632143" ry="0.632143" transform="translate(104.343159 196.815038)" fill="#d2dbed" stroke-width="0"/><ellipse rx="0.632143" ry="0.632143" transform="translate(134.343159 196.815038)" fill="#d2dbed" stroke-width="0"/><ellipse rx="0.632143" ry="0.632143" transform="translate(144.343159 196.815038)" fill="#d2dbed" stroke-width="0"/><ellipse rx="0.632143" ry="0.632143" transform="translate(114.343159 203.815038)" fill="#d2dbed" stroke-width="0"/><ellipse rx="0.632143" ry="0.632143" transform="translate(144.343159 203.815038)" fill="#d2dbed" stroke-width="0"/><ellipse rx="0.632143" ry="0.632143" transform="translate(164.343159 203.815038)" fill="#d2dbed" stroke-width="0"/><ellipse rx="0.632143" ry="0.632143" transform="translate(164.343159 213.815038)" fill="#d2dbed" stroke-width="0"/><ellipse rx="0.632143" ry="0.632143" transform="translate(-16.656841 225.815038)" fill="#d2dbed" stroke-width="0"/><ellipse rx="0.632143" ry="0.632143" transform="translate(93.343159 212.815038)" fill="#d2dbed" stroke-width="0"/><ellipse rx="0.632143" ry="0.632143" transform="translate(114.343159 211.815038)" fill="#d2dbed" stroke-width="0"/><ellipse rx="0.632143" ry="0.632143" transform="translate(165.343159 219.815038)" fill="#d2dbed" stroke-width="0"/><ellipse rx="0.632143" ry="0.632143" transform="translate(183.343159 228.815038)" fill="#d2dbed" stroke-width="0"/><ellipse rx="0.632143" ry="0.632143" transform="translate(353.343159 208.815038)" fill="#d2dbed" stroke-width="0"/><ellipse rx="0.632143" ry="0.632143" transform="translate(373.343159 188.815038)" fill="#d2dbed" stroke-width="0"/><ellipse rx="0.632143" ry="0.632143" transform="translate(303.343159 258.815038)" fill="#d2dbed" stroke-width="0"/><ellipse rx="0.632143" ry="0.632143" transform="translate(273.343159 268.815038)" fill="#d2dbed" stroke-width="0"/><ellipse rx="0.632143" ry="0.632143" transform="translate(233.343159 268.815038)" fill="#d2dbed" stroke-width="0"/><ellipse rx="0.632143" ry="0.632143" transform="translate(203.343159 248.815038)" fill="#d2dbed" stroke-width="0"/><ellipse rx="0.632143" ry="0.632143" transform="translate(213.343159 258.815038)" fill="#d2dbed" stroke-width="0"/><ellipse rx="0.632143" ry="0.632143" transform="translate(383.343159 177.815038)" fill="#d2dbed" stroke-width="0"/><ellipse rx="0.632143" ry="0.632143" transform="translate(393.343159 177.815038)" fill="#d2dbed" stroke-width="0"/><ellipse rx="0.632143" ry="0.632143" transform="translate(393.343159 157.815038)" fill="#d2dbed" stroke-width="0"/><ellipse rx="0.632143" ry="0.632143" transform="translate(413.343159 147.815038)" fill="#d2dbed" stroke-width="0"/><ellipse rx="0.632143" ry="0.632143" transform="translate(433.343159 137.815038)" fill="#d2dbed" stroke-width="0"/><ellipse rx="0.632143" ry="0.632143" transform="translate(443.343159 126.815038)" fill="#d2dbed" stroke-width="0"/><ellipse rx="0.632143" ry="0.632143" transform="translate(473.343159 126.815038)" fill="#d2dbed" stroke-width="0"/><ellipse rx="0.632143" ry="0.632143" transform="translate(483.343159 136.815038)" fill="#d2dbed" stroke-width="0"/><ellipse rx="0.632143" ry="0.632143" transform="translate(502.343159 141.815038)" fill="#d2dbed" stroke-width="0"/><ellipse rx="0.632143" ry="0.632143" transform="translate(522.343159 141.815038)" fill="#d2dbed" stroke-width="0"/><ellipse rx="0.632143" ry="0.632143" transform="translate(530.343159 154.815038)" fill="#d2dbed" stroke-width="0"/><ellipse rx="0.632143" ry="0.632143" transform="translate(460.343159 144.815038)" fill="#d2dbed" stroke-width="0"/><ellipse rx="0.632143" ry="0.632143" transform="translate(550.343159 174.815038)" fill="#d2dbed" stroke-width="0"/><ellipse rx="0.632143" ry="0.632143" transform="translate(549.343159 188.815038)" fill="#d2dbed" stroke-width="0"/><ellipse rx="0.632143" ry="0.632143" transform="translate(539.343159 160.815038)" fill="#d2dbed" stroke-width="0"/><ellipse rx="0.632143" ry="0.632143" transform="translate(559.343159 200.815038)" fill="#d2dbed" stroke-width="0"/><ellipse rx="0.632143" ry="0.632143" transform="translate(559.343159 220.815038)" fill="#d2dbed" stroke-width="0"/><ellipse rx="0.632143" ry="0.632143" transform="translate(507.343159 154.815038)" fill="#d2dbed" stroke-width="0"/><ellipse rx="0.632143" ry="0.632143" transform="translate(477.343159 154.815038)" fill="#d2dbed" stroke-width="0"/><ellipse rx="0.632143" ry="0.632143" transform="translate(437.343159 154.815038)" fill="#d2dbed" stroke-width="0"/><ellipse rx="0.632143" ry="0.632143" transform="translate(417.343159 164.815038)" fill="#d2dbed" stroke-width="0"/><ellipse rx="0.632143" ry="0.632143" transform="translate(447.343159 163.815038)" fill="#d2dbed" stroke-width="0"/><ellipse rx="0.632143" ry="0.632143" transform="translate(487.343159 163.815038)" fill="#d2dbed" stroke-width="0"/><ellipse rx="0.632143" ry="0.632143" transform="translate(517.343159 163.815038)" fill="#d2dbed" stroke-width="0"/><ellipse rx="0.632143" ry="0.632143" transform="translate(506.343159 167.815038)" fill="#d2dbed" stroke-width="0"/><ellipse rx="0.632143" ry="0.632143" transform="translate(507.343159 173.815038)" fill="#d2dbed" stroke-width="0"/><ellipse rx="0.632143" ry="0.632143" transform="translate(520.343159 167.815038)" fill="#d2dbed" stroke-width="0"/><ellipse rx="0.632143" ry="0.632143" transform="translate(476.343159 167.815038)" fill="#d2dbed" stroke-width="0"/><ellipse rx="0.632143" ry="0.632143" transform="translate(477.343159 173.815038)" fill="#d2dbed" stroke-width="0"/><ellipse rx="0.632143" ry="0.632143" transform="translate(490.343159 167.815038)" fill="#d2dbed" stroke-width="0"/><ellipse rx="0.632143" ry="0.632143" transform="translate(436.343159 167.815038)" fill="#d2dbed" stroke-width="0"/><ellipse rx="0.632143" ry="0.632143" transform="translate(437.343159 173.815038)" fill="#d2dbed" stroke-width="0"/><ellipse rx="0.632143" ry="0.632143" transform="translate(450.343159 167.815038)" fill="#d2dbed" stroke-width="0"/><ellipse rx="0.632143" ry="0.632143" transform="translate(406.343159 168.815038)" fill="#d2dbed" stroke-width="0"/><ellipse rx="0.632143" ry="0.632143" transform="translate(407.576752 174.815038)" fill="#d2dbed" stroke-width="0"/><ellipse rx="0.632143" ry="0.632143" transform="translate(420.343159 168.815038)" fill="#d2dbed" stroke-width="0"/><ellipse rx="0.632143" ry="0.632143" transform="translate(564.343159 236.815038)" fill="#d2dbed" stroke-width="0"/><ellipse rx="0.632143" ry="0.632143" transform="translate(574.343159 256.815038)" fill="#d2dbed" stroke-width="0"/><ellipse rx="0.632143" ry="0.632143" transform="translate(564.343159 246.815038)" fill="#d2dbed" stroke-width="0"/><ellipse rx="0.632143" ry="0.632143" transform="translate(626.343159 268.815038)" fill="#d2dbed" stroke-width="0"/><ellipse rx="0.632143" ry="0.632143" transform="translate(648.343159 255.815038)" fill="#d2dbed" stroke-width="0"/><ellipse rx="0.632143" ry="0.632143" transform="translate(667.343159 234.815038)" fill="#d2dbed" stroke-width="0"/><ellipse rx="0.632143" ry="0.632143" transform="translate(674.343159 224.815038)" fill="#d2dbed" stroke-width="0"/><ellipse rx="0.632143" ry="0.632143" transform="translate(694.343159 214.815038)" fill="#d2dbed" stroke-width="0"/><ellipse rx="0.632143" ry="0.632143" transform="translate(713.343159 206.815038)" fill="#d2dbed" stroke-width="0"/><ellipse rx="0.632143" ry="0.632143" transform="translate(693.343159 208.815038)" fill="#d2dbed" stroke-width="0"/><ellipse rx="0.632143" ry="0.632143" transform="translate(733.343159 223.815038)" fill="#d2dbed" stroke-width="0"/><ellipse rx="0.632143" ry="0.632143" transform="translate(723.343159 213.815038)" fill="#d2dbed" stroke-width="0"/><ellipse rx="0.632143" ry="0.632143" transform="translate(714.343159 230.815038)" fill="#d2dbed" stroke-width="0"/><ellipse rx="0.632143" ry="0.632143" transform="translate(694.343159 230.815038)" fill="#d2dbed" stroke-width="0"/><ellipse rx="0.632143" ry="0.632143" transform="translate(749.343159 250.815038)" fill="#d2dbed" stroke-width="0"/><ellipse rx="0.632143" ry="0.632143" transform="translate(739.343159 240.815038)" fill="#d2dbed" stroke-width="0"/><ellipse rx="0.632143" ry="0.632143" transform="translate(759.343159 270.815038)" fill="#d2dbed" stroke-width="0"/><ellipse rx="0.632143" ry="0.632143" transform="translate(771.343159 291.815038)" fill="#d2dbed" stroke-width="0"/><ellipse rx="0.632143" ry="0.632143" transform="translate(781.343159 301.815038)" fill="#d2dbed" stroke-width="0"/><ellipse rx="0.632143" ry="0.632143" transform="translate(794.343159 309.815038)" fill="#d2dbed" stroke-width="0"/><ellipse rx="0.632143" ry="0.632143" transform="translate(769.343159 276.815038)" fill="#d2dbed" stroke-width="0"/><ellipse rx="0.632143" ry="0.632143" transform="translate(769.343159 276.815038)" fill="#d2dbed" stroke-width="0"/><ellipse rx="0.632143" ry="0.632143" transform="translate(766.343159 272.815038)" fill="#d2dbed" stroke-width="0"/><ellipse rx="0.632143" ry="0.632143" transform="translate(755.343159 276.815038)" fill="#d2dbed" stroke-width="0"/><ellipse rx="0.632143" ry="0.632143" transform="translate(756.576752 282.815038)" fill="#d2dbed" stroke-width="0"/><ellipse rx="0.632143" ry="0.632143" transform="translate(766.343159 272.815038)" fill="#d2dbed" stroke-width="0"/><ellipse rx="0.632143" ry="0.632143" transform="translate(755.343159 276.815038)" fill="#d2dbed" stroke-width="0"/><ellipse rx="0.632143" ry="0.632143" transform="translate(756.576752 282.815038)" fill="#d2dbed" stroke-width="0"/><ellipse rx="0.632143" ry="0.632143" transform="translate(791.343159 305.815038)" fill="#d2dbed" stroke-width="0"/><ellipse rx="0.632143" ry="0.632143" transform="translate(780.343159 309.815038)" fill="#d2dbed" stroke-width="0"/><ellipse rx="0.632143" ry="0.632143" transform="translate(781.576752 315.815038)" fill="#d2dbed" stroke-width="0"/><ellipse rx="0.632143" ry="0.632143" transform="translate(778.343159 297.815038)" fill="#d2dbed" stroke-width="0"/><ellipse rx="0.632143" ry="0.632143" transform="translate(767.343159 301.815038)" fill="#d2dbed" stroke-width="0"/><ellipse rx="0.632143" ry="0.632143" transform="translate(768.576752 307.815038)" fill="#d2dbed" stroke-width="0"/><ellipse rx="0.632143" ry="0.632143" transform="translate(768.343159 287.815038)" fill="#d2dbed" stroke-width="0"/><ellipse rx="0.632143" ry="0.632143" transform="translate(757.343159 291.815038)" fill="#d2dbed" stroke-width="0"/><ellipse rx="0.632143" ry="0.632143" transform="translate(758.576752 297.815038)" fill="#d2dbed" stroke-width="0"/><ellipse rx="0.632143" ry="0.632143" transform="translate(756.343159 266.815038)" fill="#d2dbed" stroke-width="0"/><ellipse rx="0.632143" ry="0.632143" transform="translate(745.343159 270.815038)" fill="#d2dbed" stroke-width="0"/><ellipse rx="0.632143" ry="0.632143" transform="translate(746.576752 276.815038)" fill="#d2dbed" stroke-width="0"/><ellipse rx="0.632143" ry="0.632143" transform="translate(736.343159 236.815038)" fill="#d2dbed" stroke-width="0"/><ellipse rx="0.632143" ry="0.632143" transform="translate(725.343159 240.815038)" fill="#d2dbed" stroke-width="0"/><ellipse rx="0.632143" ry="0.632143" transform="translate(726.576752 246.815038)" fill="#d2dbed" stroke-width="0"/><ellipse rx="0.632143" ry="0.632143" transform="translate(746.343159 246.815038)" fill="#d2dbed" stroke-width="0"/><ellipse rx="0.632143" ry="0.632143" transform="translate(735.343159 250.815038)" fill="#d2dbed" stroke-width="0"/><ellipse rx="0.632143" ry="0.632143" transform="translate(736.576752 256.815038)" fill="#d2dbed" stroke-width="0"/><ellipse rx="0.632143" ry="0.632143" transform="translate(691.343159 226.815038)" fill="#d2dbed" stroke-width="0"/><ellipse rx="0.632143" ry="0.632143" transform="translate(680.343159 230.815038)" fill="#d2dbed" stroke-width="0"/><ellipse rx="0.632143" ry="0.632143" transform="translate(681.576752 236.815038)" fill="#d2dbed" stroke-width="0"/><ellipse rx="0.632143" ry="0.632143" transform="translate(711.343159 226.815038)" fill="#d2dbed" stroke-width="0"/><ellipse rx="0.632143" ry="0.632143" transform="translate(700.343159 230.815038)" fill="#d2dbed" stroke-width="0"/><ellipse rx="0.632143" ry="0.632143" transform="translate(701.576752 236.815038)" fill="#d2dbed" stroke-width="0"/><ellipse rx="0.632143" ry="0.632143" transform="translate(720.343159 209.815038)" fill="#d2dbed" stroke-width="0"/><ellipse rx="0.632143" ry="0.632143" transform="translate(709.343159 213.815038)" fill="#d2dbed" stroke-width="0"/><ellipse rx="0.632143" ry="0.632143" transform="translate(710.576752 219.815038)" fill="#d2dbed" stroke-width="0"/><ellipse rx="0.632143" ry="0.632143" transform="translate(730.343159 219.815038)" fill="#d2dbed" stroke-width="0"/><ellipse rx="0.632143" ry="0.632143" transform="translate(719.343159 223.815038)" fill="#d2dbed" stroke-width="0"/><ellipse rx="0.632143" ry="0.632143" transform="translate(720.576752 229.815038)" fill="#d2dbed" stroke-width="0"/><ellipse rx="0.632143" ry="0.632143" transform="translate(690.343159 204.815038)" fill="#d2dbed" stroke-width="0"/><ellipse rx="0.632143" ry="0.632143" transform="translate(679.343159 208.815038)" fill="#d2dbed" stroke-width="0"/><ellipse rx="0.632143" ry="0.632143" transform="translate(680.576752 214.815038)" fill="#d2dbed" stroke-width="0"/><ellipse rx="0.632143" ry="0.632143" transform="translate(710.343159 202.815038)" fill="#d2dbed" stroke-width="0"/><ellipse rx="0.632143" ry="0.632143" transform="translate(699.343159 206.815038)" fill="#d2dbed" stroke-width="0"/><ellipse rx="0.632143" ry="0.632143" transform="translate(700.576752 212.815038)" fill="#d2dbed" stroke-width="0"/><ellipse rx="0.632143" ry="0.632143" transform="translate(691.343159 210.815038)" fill="#d2dbed" stroke-width="0"/><ellipse rx="0.632143" ry="0.632143" transform="translate(680.343159 214.815038)" fill="#d2dbed" stroke-width="0"/><ellipse rx="0.632143" ry="0.632143" transform="translate(681.576752 220.815038)" fill="#d2dbed" stroke-width="0"/><ellipse rx="0.632143" ry="0.632143" transform="translate(671.343159 220.815038)" fill="#d2dbed" stroke-width="0"/><ellipse rx="0.632143" ry="0.632143" transform="translate(660.343159 224.815038)" fill="#d2dbed" stroke-width="0"/><ellipse rx="0.632143" ry="0.632143" transform="translate(661.576752 230.815038)" fill="#d2dbed" stroke-width="0"/><ellipse rx="0.632143" ry="0.632143" transform="translate(664.343159 230.815038)" fill="#d2dbed" stroke-width="0"/><ellipse rx="0.632143" ry="0.632143" transform="translate(653.343159 234.815038)" fill="#d2dbed" stroke-width="0"/><ellipse rx="0.632143" ry="0.632143" transform="translate(654.576752 240.815038)" fill="#d2dbed" stroke-width="0"/><ellipse rx="0.632143" ry="0.632143" transform="translate(645.343159 251.815038)" fill="#d2dbed" stroke-width="0"/><ellipse rx="0.632143" ry="0.632143" transform="translate(634.343159 255.815038)" fill="#d2dbed" stroke-width="0"/><ellipse rx="0.632143" ry="0.632143" transform="translate(635.576752 261.815038)" fill="#d2dbed" stroke-width="0"/><ellipse rx="0.632143" ry="0.632143" transform="translate(623.343159 264.815038)" fill="#d2dbed" stroke-width="0"/><ellipse rx="0.632143" ry="0.632143" transform="translate(612.343159 268.815038)" fill="#d2dbed" stroke-width="0"/><ellipse rx="0.632143" ry="0.632143" transform="translate(613.576752 274.815038)" fill="#d2dbed" stroke-width="0"/><ellipse rx="0.632143" ry="0.632143" transform="translate(561.343159 242.815038)" fill="#d2dbed" stroke-width="0"/><ellipse rx="0.632143" ry="0.632143" transform="translate(550.343159 246.815038)" fill="#d2dbed" stroke-width="0"/><ellipse rx="0.632143" ry="0.632143" transform="translate(551.576752 252.815038)" fill="#d2dbed" stroke-width="0"/><ellipse rx="0.632143" ry="0.632143" transform="translate(571.343159 252.815038)" fill="#d2dbed" stroke-width="0"/><ellipse rx="0.632143" ry="0.632143" transform="translate(560.343159 256.815038)" fill="#d2dbed" stroke-width="0"/><ellipse rx="0.632143" ry="0.632143" transform="translate(561.576752 262.815038)" fill="#d2dbed" stroke-width="0"/><ellipse rx="0.632143" ry="0.632143" transform="translate(561.343159 232.815038)" fill="#d2dbed" stroke-width="0"/><ellipse rx="0.632143" ry="0.632143" transform="translate(550.343159 236.815038)" fill="#d2dbed" stroke-width="0"/><ellipse rx="0.632143" ry="0.632143" transform="translate(551.576752 242.815038)" fill="#d2dbed" stroke-width="0"/><ellipse rx="0.632143" ry="0.632143" transform="translate(426.343159 158.815038)" fill="#d2dbed" stroke-width="0"/><ellipse rx="0.632143" ry="0.632143" transform="translate(427.343159 164.815038)" fill="#d2dbed" stroke-width="0"/><ellipse rx="0.632143" ry="0.632143" transform="translate(440.343159 158.815038)" fill="#d2dbed" stroke-width="0"/><ellipse rx="0.632143" ry="0.632143" transform="translate(466.343159 158.815038)" fill="#d2dbed" stroke-width="0"/><ellipse rx="0.632143" ry="0.632143" transform="translate(467.343159 164.815038)" fill="#d2dbed" stroke-width="0"/><ellipse rx="0.632143" ry="0.632143" transform="translate(480.343159 158.815038)" fill="#d2dbed" stroke-width="0"/><ellipse rx="0.632143" ry="0.632143" transform="translate(496.343159 158.815038)" fill="#d2dbed" stroke-width="0"/><ellipse rx="0.632143" ry="0.632143" transform="translate(497.343159 164.815038)" fill="#d2dbed" stroke-width="0"/><ellipse rx="0.632143" ry="0.632143" transform="translate(510.343159 158.815038)" fill="#d2dbed" stroke-width="0"/><ellipse rx="0.632143" ry="0.632143" transform="translate(548.343159 224.815038)" fill="#d2dbed" stroke-width="0"/><ellipse rx="0.632143" ry="0.632143" transform="translate(549.343159 230.815038)" fill="#d2dbed" stroke-width="0"/><ellipse rx="0.632143" ry="0.632143" transform="translate(562.343159 224.815038)" fill="#d2dbed" stroke-width="0"/><ellipse rx="0.632143" ry="0.632143" transform="translate(548.343159 204.815038)" fill="#d2dbed" stroke-width="0"/><ellipse rx="0.632143" ry="0.632143" transform="translate(549.343159 210.815038)" fill="#d2dbed" stroke-width="0"/><ellipse rx="0.632143" ry="0.632143" transform="translate(562.343159 204.815038)" fill="#d2dbed" stroke-width="0"/><ellipse rx="0.632143" ry="0.632143" transform="translate(528.343159 164.815038)" fill="#d2dbed" stroke-width="0"/><ellipse rx="0.632143" ry="0.632143" transform="translate(529.343159 170.815038)" fill="#d2dbed" stroke-width="0"/><ellipse rx="0.632143" ry="0.632143" transform="translate(542.343159 164.815038)" fill="#d2dbed" stroke-width="0"/><ellipse rx="0.632143" ry="0.632143" transform="translate(538.343159 192.815038)" fill="#d2dbed" stroke-width="0"/><ellipse rx="0.632143" ry="0.632143" transform="translate(539.343159 198.815038)" fill="#d2dbed" stroke-width="0"/><ellipse rx="0.632143" ry="0.632143" transform="translate(552.343159 192.815038)" fill="#d2dbed" stroke-width="0"/><ellipse rx="0.632143" ry="0.632143" transform="translate(539.343159 178.815038)" fill="#d2dbed" stroke-width="0"/><ellipse rx="0.632143" ry="0.632143" transform="translate(540.343159 184.815038)" fill="#d2dbed" stroke-width="0"/><ellipse rx="0.632143" ry="0.632143" transform="translate(553.343159 178.815038)" fill="#d2dbed" stroke-width="0"/><ellipse rx="0.632143" ry="0.632143" transform="translate(449.343159 148.815038)" fill="#d2dbed" stroke-width="0"/><ellipse rx="0.632143" ry="0.632143" transform="translate(450.343159 154.815038)" fill="#d2dbed" stroke-width="0"/><ellipse rx="0.632143" ry="0.632143" transform="translate(463.343159 148.815038)" fill="#d2dbed" stroke-width="0"/><ellipse rx="0.632143" ry="0.632143" transform="translate(519.343159 158.815038)" fill="#d2dbed" stroke-width="0"/><ellipse rx="0.632143" ry="0.632143" transform="translate(520.343159 164.815038)" fill="#d2dbed" stroke-width="0"/><ellipse rx="0.632143" ry="0.632143" transform="translate(533.343159 158.815038)" fill="#d2dbed" stroke-width="0"/><ellipse rx="0.632143" ry="0.632143" transform="translate(511.343159 145.815038)" fill="#d2dbed" stroke-width="0"/><ellipse rx="0.632143" ry="0.632143" transform="translate(512.343159 151.815038)" fill="#d2dbed" stroke-width="0"/><ellipse rx="0.632143" ry="0.632143" transform="translate(525.343159 145.815038)" fill="#d2dbed" stroke-width="0"/><ellipse rx="0.632143" ry="0.632143" transform="translate(491.343159 145.815038)" fill="#d2dbed" stroke-width="0"/><ellipse rx="0.632143" ry="0.632143" transform="translate(492.343159 151.815038)" fill="#d2dbed" stroke-width="0"/><ellipse rx="0.632143" ry="0.632143" transform="translate(505.343159 145.815038)" fill="#d2dbed" stroke-width="0"/><ellipse rx="0.632143" ry="0.632143" transform="translate(472.343159 140.815038)" fill="#d2dbed" stroke-width="0"/><ellipse rx="0.632143" ry="0.632143" transform="translate(473.343159 146.815038)" fill="#d2dbed" stroke-width="0"/><ellipse rx="0.632143" ry="0.632143" transform="translate(486.343159 140.815038)" fill="#d2dbed" stroke-width="0"/><ellipse rx="0.632143" ry="0.632143" transform="translate(462.343159 130.815038)" fill="#d2dbed" stroke-width="0"/><ellipse rx="0.632143" ry="0.632143" transform="translate(463.343159 136.815038)" fill="#d2dbed" stroke-width="0"/><ellipse rx="0.632143" ry="0.632143" transform="translate(476.343159 130.815038)" fill="#d2dbed" stroke-width="0"/><ellipse rx="0.632143" ry="0.632143" transform="translate(432.343159 130.815038)" fill="#d2dbed" stroke-width="0"/><ellipse rx="0.632143" ry="0.632143" transform="translate(433.343159 136.815038)" fill="#d2dbed" stroke-width="0"/><ellipse rx="0.632143" ry="0.632143" transform="translate(446.343159 130.815038)" fill="#d2dbed" stroke-width="0"/><ellipse rx="0.632143" ry="0.632143" transform="translate(422.343159 141.815038)" fill="#d2dbed" stroke-width="0"/><ellipse rx="0.632143" ry="0.632143" transform="translate(423.343159 147.815038)" fill="#d2dbed" stroke-width="0"/><ellipse rx="0.632143" ry="0.632143" transform="translate(436.343159 141.815038)" fill="#d2dbed" stroke-width="0"/><ellipse rx="0.632143" ry="0.632143" transform="translate(402.343159 151.815038)" fill="#d2dbed" stroke-width="0"/><ellipse rx="0.632143" ry="0.632143" transform="translate(403.343159 157.815038)" fill="#d2dbed" stroke-width="0"/><ellipse rx="0.632143" ry="0.632143" transform="translate(416.343159 151.815038)" fill="#d2dbed" stroke-width="0"/><ellipse rx="0.632143" ry="0.632143" transform="translate(382.343159 161.815038)" fill="#d2dbed" stroke-width="0"/><ellipse rx="0.632143" ry="0.632143" transform="translate(383.343159 167.815038)" fill="#d2dbed" stroke-width="0"/><ellipse rx="0.632143" ry="0.632143" transform="translate(396.343159 161.815038)" fill="#d2dbed" stroke-width="0"/><ellipse rx="0.632143" ry="0.632143" transform="translate(382.343159 181.815038)" fill="#d2dbed" stroke-width="0"/><ellipse rx="0.632143" ry="0.632143" transform="translate(383.343159 187.815038)" fill="#d2dbed" stroke-width="0"/><ellipse rx="0.632143" ry="0.632143" transform="translate(396.343159 181.815038)" fill="#d2dbed" stroke-width="0"/><ellipse rx="0.632143" ry="0.632143" transform="translate(372.343159 181.815038)" fill="#d2dbed" stroke-width="0"/><ellipse rx="0.632143" ry="0.632143" transform="translate(373.343159 187.815038)" fill="#d2dbed" stroke-width="0"/><ellipse rx="0.632143" ry="0.632143" transform="translate(386.343159 181.815038)" fill="#d2dbed" stroke-width="0"/><ellipse rx="0.632143" ry="0.632143" transform="translate(202.343159 262.815038)" fill="#d2dbed" stroke-width="0"/><ellipse rx="0.632143" ry="0.632143" transform="translate(203.343159 268.815038)" fill="#d2dbed" stroke-width="0"/><ellipse rx="0.632143" ry="0.632143" transform="translate(216.343159 262.815038)" fill="#d2dbed" stroke-width="0"/><ellipse rx="0.632143" ry="0.632143" transform="translate(192.343159 252.815038)" fill="#d2dbed" stroke-width="0"/><ellipse rx="0.632143" ry="0.632143" transform="translate(193.343159 258.815038)" fill="#d2dbed" stroke-width="0"/><ellipse rx="0.632143" ry="0.632143" transform="translate(206.343159 252.815038)" fill="#d2dbed" stroke-width="0"/><ellipse rx="0.632143" ry="0.632143" transform="translate(222.343159 272.815038)" fill="#d2dbed" stroke-width="0"/><ellipse rx="0.632143" ry="0.632143" transform="translate(223.343159 278.815038)" fill="#d2dbed" stroke-width="0"/><ellipse rx="0.632143" ry="0.632143" transform="translate(236.343159 272.815038)" fill="#d2dbed" stroke-width="0"/><ellipse rx="0.632143" ry="0.632143" transform="translate(262.343159 272.815038)" fill="#d2dbed" stroke-width="0"/><ellipse rx="0.632143" ry="0.632143" transform="translate(263.343159 278.815038)" fill="#d2dbed" stroke-width="0"/><ellipse rx="0.632143" ry="0.632143" transform="translate(276.343159 272.815038)" fill="#d2dbed" stroke-width="0"/><ellipse rx="0.632143" ry="0.632143" transform="translate(292.343159 262.815038)" fill="#d2dbed" stroke-width="0"/><ellipse rx="0.632143" ry="0.632143" transform="translate(293.343159 268.815038)" fill="#d2dbed" stroke-width="0"/><ellipse rx="0.632143" ry="0.632143" transform="translate(306.343159 262.815038)" fill="#d2dbed" stroke-width="0"/><ellipse rx="0.632143" ry="0.632143" transform="translate(362.343159 192.815038)" fill="#d2dbed" stroke-width="0"/><ellipse rx="0.632143" ry="0.632143" transform="translate(363.343159 198.815038)" fill="#d2dbed" stroke-width="0"/><ellipse rx="0.632143" ry="0.632143" transform="translate(376.343159 192.815038)" fill="#d2dbed" stroke-width="0"/><ellipse rx="0.632143" ry="0.632143" transform="translate(342.343159 212.815038)" fill="#d2dbed" stroke-width="0"/><ellipse rx="0.632143" ry="0.632143" transform="translate(343.343159 218.815038)" fill="#d2dbed" stroke-width="0"/><ellipse rx="0.632143" ry="0.632143" transform="translate(356.343159 212.815038)" fill="#d2dbed" stroke-width="0"/><ellipse rx="0.632143" ry="0.632143" transform="translate(172.343159 232.815038)" fill="#d2dbed" stroke-width="0"/><ellipse rx="0.632143" ry="0.632143" transform="translate(173.343159 238.815038)" fill="#d2dbed" stroke-width="0"/><ellipse rx="0.632143" ry="0.632143" transform="translate(186.343159 232.815038)" fill="#d2dbed" stroke-width="0"/><ellipse rx="0.632143" ry="0.632143" transform="translate(145.343159 208.815038)" fill="#d2dbed" stroke-width="0"/><ellipse rx="0.632143" ry="0.632143" transform="translate(168.343159 223.815038)" fill="#d2dbed" stroke-width="0"/><ellipse rx="0.632143" ry="0.632143" transform="translate(178.343159 219.815038)" fill="#d2dbed" stroke-width="0"/><ellipse rx="0.632143" ry="0.632143" transform="translate(168.343159 229.815038)" fill="#d2dbed" stroke-width="0"/><ellipse rx="0.632143" ry="0.632143" transform="translate(158.343159 233.815038)" fill="#d2dbed" stroke-width="0"/><ellipse rx="0.632143" ry="0.632143" transform="translate(135.343159 218.815038)" fill="#d2dbed" stroke-width="0"/><ellipse rx="0.632143" ry="0.632143" transform="translate(155.343159 229.815038)" fill="#d2dbed" stroke-width="0"/><ellipse rx="0.632143" ry="0.632143" transform="translate(104.343159 221.815038)" fill="#d2dbed" stroke-width="0"/><ellipse rx="0.632143" ry="0.632143" transform="translate(83.343159 222.815038)" fill="#d2dbed" stroke-width="0"/><ellipse rx="0.632143" ry="0.632143" transform="translate(-26.656841 235.815038)" fill="#d2dbed" stroke-width="0"/><ellipse rx="0.632143" ry="0.632143" transform="translate(154.343159 223.815038)" fill="#d2dbed" stroke-width="0"/><ellipse rx="0.632143" ry="0.632143" transform="translate(178.343159 219.815038)" fill="#d2dbed" stroke-width="0"/><ellipse rx="0.632143" ry="0.632143" transform="translate(168.343159 229.815038)" fill="#d2dbed" stroke-width="0"/><ellipse rx="0.632143" ry="0.632143" transform="translate(154.343159 213.815038)" fill="#d2dbed" stroke-width="0"/><ellipse rx="0.632143" ry="0.632143" transform="translate(134.343159 213.815038)" fill="#d2dbed" stroke-width="0"/><ellipse rx="0.632143" ry="0.632143" transform="translate(104.343159 213.815038)" fill="#d2dbed" stroke-width="0"/><ellipse rx="0.632143" ry="0.632143" transform="translate(134.343159 206.815038)" fill="#d2dbed" stroke-width="0"/><ellipse rx="0.632143" ry="0.632143" transform="translate(124.343159 206.815038)" fill="#d2dbed" stroke-width="0"/><ellipse rx="0.632143" ry="0.632143" transform="translate(94.343159 206.815038)" fill="#d2dbed" stroke-width="0"/><ellipse rx="0.632143" ry="0.632143" transform="translate(74.343159 216.815038)" fill="#d2dbed" stroke-width="0"/><ellipse rx="0.632143" ry="0.632143" transform="translate(-135.656841 206.815038)" fill="#d2dbed" stroke-width="0"/><ellipse rx="0.632143" ry="0.632143" transform="translate(-105.656841 214.815038)" fill="#d2dbed" stroke-width="0"/><ellipse rx="0.632143" ry="0.632143" transform="translate(-85.656841 223.815038)" fill="#d2dbed" stroke-width="0"/><ellipse rx="0.632143" ry="0.632143" transform="translate(-235.656841 297.815038)" fill="#d2dbed" stroke-width="0"/><ellipse rx="0.632143" ry="0.632143" transform="translate(-211.656841 277.815038)" fill="#d2dbed" stroke-width="0"/><ellipse rx="0.632143" ry="0.632143" transform="translate(-219.656841 279.815038)" fill="#d2dbed" stroke-width="0"/><ellipse rx="0.632143" ry="0.632143" transform="translate(-199.656841 259.815038)" fill="#d2dbed" stroke-width="0"/><ellipse rx="0.632143" ry="0.632143" transform="translate(-155.656841 229.815038)" fill="#d2dbed" stroke-width="0"/><ellipse rx="0.632143" ry="0.632143" transform="translate(-179.656841 249.815038)" fill="#d2dbed" stroke-width="0"/><ellipse rx="0.632143" ry="0.632143" transform="translate(-180.656841 239.815038)" fill="#d2dbed" stroke-width="0"/><ellipse rx="0.632143" ry="0.632143" transform="translate(-150.656841 209.815038)" fill="#d2dbed" stroke-width="0"/><ellipse rx="0.632143" ry="0.632143" transform="translate(-43.656841 232.815038)" fill="#d2dbed" stroke-width="0"/><ellipse rx="0.632143" ry="0.632143" transform="translate(-73.656841 222.815038)" fill="#d2dbed" stroke-width="0"/><ellipse rx="0.632143" ry="0.632143" transform="translate(-103.656841 202.815038)" fill="#d2dbed" stroke-width="0"/><ellipse rx="0.632143" ry="0.632143" transform="translate(-85.656841 202.815038)" fill="#d2dbed" stroke-width="0"/><ellipse rx="0.632143" ry="0.632143" transform="translate(-125.656841 222.815038)" fill="#d2dbed" stroke-width="0"/><ellipse rx="0.632143" ry="0.632143" transform="translate(-136.656841 226.815038)" fill="#d2dbed" stroke-width="0"/><ellipse rx="0.632143" ry="0.632143" transform="translate(-166.656841 246.815038)" fill="#d2dbed" stroke-width="0"/></svg>